<svg width="1000" height="1000" viewBox="0 0 1000 1000" fill="none" xmlns="http://www.w3.org/2000/svg">
<rect width="1000" height="1000" />
<path d="M44.5253 253.039C43.4888 253.228 40.4736 254.264 37.8353 255.301C32.4643 257.374 30.3914 260.295 26.9992 270C26.0569 272.921 24.5493 276.407 23.7013 277.632C22.0994 280.176 17.4823 292.991 18.0477 293.556C18.2361 293.745 20.686 294.122 23.4186 294.499C27.3761 294.97 29.2606 295.724 31.9932 298.174C36.2334 301.943 39.7198 303.827 44.3369 304.675C47.0695 305.241 48.2002 306.183 50.0847 309.292C52.8173 314.004 55.2672 322.955 54.7018 326.159C54.3249 327.855 54.8903 328.986 56.6806 330.399C58.094 331.436 60.0727 334.262 61.1092 336.712L63.088 341.141L65.1609 339.162C68.082 336.43 70.9088 336.712 75.149 340.01C77.1277 341.518 80.8968 343.402 83.6293 344.062C87.1157 345.004 90.131 346.7 93.7116 349.904C98.4229 354.05 99.0825 354.333 102.286 353.673C107.469 352.637 116.514 353.108 121.697 354.71C124.241 355.463 127.633 356.029 129.047 356.029C133.287 356.029 137.81 360.08 139.223 365.074C139.883 367.43 141.202 369.88 142.238 370.445C143.181 371.105 143.934 371.953 143.934 372.424C143.934 372.989 145.065 374.497 146.384 376.005L148.928 378.549L151.284 376.759C154.393 374.309 158.257 374.403 160.612 376.947C164.193 380.81 169.375 393.531 169.375 398.336C169.375 402.294 169.847 403.33 174.181 408.136C178.421 412.847 179.175 413.413 180.871 412.47C184.263 410.586 190.859 411.999 194.251 415.297C196.607 417.559 198.115 418.218 200.941 418.218C207.16 418.312 213.002 420.103 215.923 422.741C217.431 424.154 220.258 428.772 222.142 433.012C226.383 442.152 229.68 460.055 229.68 474.189C229.68 483.988 231.659 490.773 236.371 497.84C237.69 499.913 239.197 503.493 239.574 505.849C239.951 508.204 240.893 510.843 241.741 511.785C242.684 512.916 243.155 514.8 242.966 517.156C242.872 519.417 243.343 521.773 244.38 523.187C245.605 525.165 245.887 527.615 245.793 535.342L245.605 544.953L250.41 552.491C260.021 567.473 260.869 570.3 262.283 593.668C262.942 603.656 262.848 603.656 260.021 608.744C258.42 611.571 256.818 615.623 256.441 617.884C255.593 623.067 246.17 635.976 241.93 637.766C240.14 638.52 238.067 640.687 236.371 643.796C234.769 646.435 231.659 651.335 229.304 654.632C226.854 658.025 224.969 661.04 224.969 661.417C224.969 661.794 227.325 662.359 230.246 662.736C234.109 663.207 236.276 664.055 238.726 666.222C241.647 668.766 242.684 669.143 247.018 668.955C250.881 668.861 252.295 669.143 253.614 670.651C254.556 671.688 256.912 672.724 258.796 673.101C261.341 673.478 262.754 674.42 263.885 676.305C266.052 679.979 270.009 680.733 271.14 677.718C271.611 676.493 273.119 675.268 274.438 674.891C275.851 674.514 277.83 672.818 279.055 670.839C280.28 668.955 283.013 666.128 285.274 664.621L289.232 661.888L292.247 663.584C293.849 664.526 296.864 666.222 298.843 667.259L302.518 669.238L306.098 667.165C309.113 665.374 310.056 665.28 312.034 666.222C314.107 667.07 314.767 666.976 316.275 665.657C318.065 664.055 318.348 664.055 323.247 666.882C327.016 669.049 329.561 669.803 332.953 669.803C335.968 669.803 338.041 670.368 339.36 671.593C341.716 673.666 346.804 675.457 350.385 675.457C352.175 675.457 354.436 676.682 356.886 678.943L360.75 682.335L364.047 680.827C365.838 679.885 368.099 677.906 368.947 676.21C369.795 674.609 372.339 671.216 374.601 668.672C376.768 666.128 378.558 663.113 378.558 661.888C378.558 656.046 379.595 654.067 383.835 652.088C389.3 649.356 404.376 649.073 405.319 651.523C405.79 652.748 406.732 652.936 410.03 652.465L414.27 651.806L413.705 657.271C413.328 660.946 412.574 663.113 411.349 664.149C409.653 665.469 409.747 665.751 413.799 669.049L418.039 672.63L421.055 669.52L424.164 666.505L425.577 670.086C426.802 673.007 427.462 673.572 429.252 673.101C430.854 672.724 431.514 673.101 432.173 674.703C432.644 675.928 434.152 677.906 435.471 679.131C436.79 680.451 437.921 682.147 437.921 682.9C438.015 685.35 447.061 694.302 449.511 694.302C452.243 694.302 455.07 696.94 456.766 700.803C457.614 702.876 458.557 703.725 460.159 703.725C461.289 703.725 462.608 704.196 462.985 704.761C463.268 705.326 464.493 705.515 465.718 705.232C467.225 704.855 468.074 705.138 468.45 706.174C469.393 708.719 469.11 710.32 467.602 710.32C464.964 710.32 460.818 713.053 460.253 715.032C459.782 716.728 460.253 716.916 463.645 716.916C465.812 716.916 468.168 717.293 468.827 717.67C469.393 718.141 470.995 721.345 472.125 725.02C474.764 732.558 475.612 733.029 482.208 730.202C486.825 728.223 492.761 727.752 499.263 728.789C502.184 729.26 502.937 730.014 505.105 734.442C506.518 737.269 507.649 740.661 507.649 741.886C507.649 744.807 507.649 744.807 515.752 741.98C520.84 740.19 522.631 739.907 524.138 740.756C525.834 741.698 531.865 742.546 546.282 743.865L551.464 744.336L557.777 738.683L563.996 732.935H573.984C581.711 732.935 585.009 732.464 589.155 730.956C592.924 729.543 595.562 729.166 597.918 729.543C608.094 731.333 608.094 731.333 609.696 728.883C610.544 727.564 611.486 725.397 611.863 723.983C612.24 722.57 613.465 721.156 614.878 720.591C616.857 719.837 617.705 720.12 620.155 722.381C625.903 727.846 629.201 728.412 636.268 725.302L640.791 723.324L645.314 725.397C650.496 727.846 657.469 727.658 661.615 724.831C663.97 723.324 664.159 723.418 666.892 726.245C669.247 728.789 669.907 729.071 671.509 728.223C672.639 727.658 674.147 725.962 674.901 724.454C676.126 722.004 676.88 721.628 680.177 721.628C682.25 721.628 685.171 722.287 686.679 723.041C688.94 724.266 691.673 724.36 701.284 723.889C714.947 723.135 715.23 722.852 709.67 715.126L706.372 710.415L708.728 708.907C710.895 707.494 711.272 707.494 716.737 710.226C719.847 711.828 723.427 713.147 724.558 713.147C725.972 713.147 732.19 708.342 743.215 698.448C774.592 670.463 776.477 669.426 785.052 676.022L789.386 679.32L797.207 678.754L804.933 678.189L807.477 682.052C809.739 685.256 810.587 685.821 813.508 685.821C819.162 685.821 824.532 687.8 828.207 691.287C831.599 694.49 831.788 694.585 837.347 693.925C840.551 693.548 843.095 693.548 843.095 693.925C843.095 694.302 841.587 696.186 839.797 698.165C838.007 700.238 836.499 702.217 836.499 702.688C836.499 703.913 847.241 713.147 853.931 717.576C857.041 719.649 863.165 722.476 867.5 723.983C877.394 727.281 885.12 726.904 894.449 722.664C898.877 720.685 901.421 720.026 903.683 720.403C905.379 720.685 908.488 720.403 910.467 719.837L914.142 718.801L923.659 728.129C933.364 737.646 936.285 739.813 938.452 739.154C944.012 737.363 944.671 737.552 945.802 740.85C947.215 745.184 949.854 747.257 954 747.446C957.392 747.54 957.486 747.351 959.465 742.357C961.255 737.552 961.726 737.175 964.647 736.892C970.772 736.421 972.185 735.762 973.41 732.652C974.164 731.05 975.86 729.071 977.179 728.318C979.252 727.187 979.724 726.245 979.724 723.606C979.724 721.722 980.289 719.366 980.948 718.33C982.268 716.445 982.362 706.363 981.137 698.448C980.572 694.961 980.1 694.49 975.86 692.606C972.28 691.098 970.866 689.967 969.83 687.329C968.416 684.125 968.134 683.937 963.799 683.937C960.878 683.937 958.805 683.466 958.051 682.524C957.392 681.77 956.167 681.11 955.319 681.11C954.377 681.11 951.55 679.226 949.006 676.87C946.462 674.514 943.635 672.63 942.693 672.63C941.844 672.63 940.62 671.593 940.148 670.368C939.677 669.049 938.264 667.918 936.662 667.447C935.249 667.165 933.364 666.317 932.61 665.657C931.857 664.903 929.972 664.149 928.559 663.772C926.486 663.301 926.014 662.736 926.486 661.417C926.862 660.192 926.203 658.778 924.601 657.177C923.282 655.857 922.245 653.69 922.245 652.371C922.245 650.392 922.717 650.015 924.978 650.015C928.464 650.015 929.218 647.942 926.862 644.927C925.261 642.854 924.601 642.666 922.999 643.514C921.02 644.644 919.419 643.42 919.419 640.781C919.419 639.274 918.947 639.368 915.555 641.158C914.048 641.912 911.975 642.289 911.032 642.006C908.111 641.158 905.285 633.055 905.285 625.988C905.285 618.732 906.981 614.021 910.467 611.759C912.54 610.44 913.482 610.346 916.498 611.288C923.093 613.173 922.434 613.644 933.176 601.489C937.133 596.872 938.547 594.422 939.96 589.145L941.75 582.643L939.206 579.44C936.662 576.519 936.002 576.236 928.653 575.482C921.303 574.823 920.644 574.54 918.476 571.713C912.257 563.61 913.482 564.081 902.835 565.306C897.652 565.965 892.564 566.154 891.716 565.871C890.868 565.494 889.549 563.798 888.795 562.008C887.287 558.333 885.214 557.202 883.612 559.087C882.576 560.312 882.199 560.312 880.503 559.087C877.865 557.297 875.132 557.297 872.494 559.181C870.515 560.5 870.421 560.5 870.421 558.71C870.421 557.673 869.573 556.354 868.536 555.789C867.406 555.224 866.652 553.81 866.652 552.397C866.652 548.062 863.448 544.764 858.454 544.011C850.256 542.88 847.147 541.466 841.305 536.472C837.159 532.798 834.615 531.29 831.599 530.819C828.678 530.253 826.7 529.217 824.532 526.767C821.8 523.846 821.517 522.904 821.988 519.983C822.365 518.193 823.779 514.518 825.286 511.879C829.432 504.53 833.296 494.636 834.992 487.004C835.84 483.234 837.253 478.617 838.007 476.827C839.326 473.529 839.326 473.435 836.405 470.42C832.259 466.085 820.481 461.657 808.137 459.678C802.107 458.736 801.447 458.924 792.307 462.034C787.125 463.824 782.131 465.331 781.094 465.331C779.963 465.331 778.927 464.106 778.079 461.751C776.571 457.416 771.86 451.48 769.41 450.632C768.373 450.349 766.772 448.276 765.829 446.015C764.793 443.659 762.626 440.927 760.458 439.325C758.48 437.911 755.37 435.085 753.486 433.106C749.528 429.054 747.549 428.772 742.273 431.41C735.488 434.896 732.85 434.142 724.841 426.604C716.926 418.972 715.512 418.784 708.445 423.401C704.959 425.756 704.771 426.133 704.394 431.504C704.111 435.839 703.451 437.629 701.567 439.702C699.211 442.057 699.117 442.434 700.436 444.884C701.661 447.146 701.661 447.523 700.342 447.994C697.892 448.936 696.102 447.617 696.102 444.884C696.102 442.057 689.035 429.148 686.114 426.51C683.947 424.72 671.697 421.987 665.195 421.987C660.107 421.987 653.04 424.154 645.502 428.018C641.262 430.091 639.377 430.468 632.122 430.468H623.642L622.511 434.425C621.003 440.173 616.857 447.24 614.596 447.9C613.559 448.182 608.188 448.842 602.535 449.313C591.322 450.255 587.93 451.669 583.595 457.322C580.297 461.657 577.753 461.562 572.1 456.851C567.671 453.176 567.483 453.176 559.096 452.894L550.522 452.611L548.731 449.03L547.035 445.45L551.087 439.608C553.349 436.404 555.893 433.2 556.835 432.541C557.777 431.881 559.191 430.091 559.944 428.677L561.264 426.039L555.422 422.458C551.652 420.197 547.601 418.689 543.926 418.124C539.215 417.37 537.895 416.711 535.917 414.166C529.886 406.346 521.312 400.786 512.36 398.902C510.57 398.525 508.402 397.677 507.649 397.017C506.047 395.698 497.661 393.719 493.515 393.719C492.007 393.719 488.803 392.683 486.353 391.364C483.527 389.856 480.417 389.008 477.779 389.008C472.125 389.008 467.697 386.464 458.934 378.549C454.882 374.78 449.605 369.88 447.155 367.619L442.632 363.473L444.046 359.609C445.742 354.615 444.988 353.579 438.109 352.26C431.796 350.94 429.252 349.527 424.541 344.439C421.431 341.141 420.678 340.764 418.887 341.612C417.285 342.272 415.778 342.083 412.763 340.764C409.653 339.445 408.334 339.256 406.826 340.01C405.507 340.764 404.376 340.764 403.057 340.01C400.23 338.503 397.969 339.633 396.367 343.12C394.294 347.831 390.431 347.737 382.045 342.648C378.276 340.481 373.564 337.089 371.491 335.205C366.403 330.587 362.917 329.645 351.704 329.645C345.014 329.645 341.622 329.268 340.397 328.326C339.077 327.384 337.947 327.29 336.251 327.949C334.931 328.42 333.047 328.703 332.01 328.609C326.168 328.232 324.001 328.891 318.065 333.414L311.846 338.126L300.633 335.205C284.709 330.964 284.143 330.964 279.997 333.791C275.286 336.995 271.8 336.901 266.523 333.414C262.848 331.153 261.058 330.587 255.122 330.399C251.258 330.211 246.547 330.493 244.757 330.87C241.553 331.53 241.365 331.436 236.465 325.028C232.13 319.375 230.717 318.244 225.817 316.454C221.483 314.757 220.258 313.909 220.258 312.402C220.258 311.271 219.127 309.198 217.714 307.785C215.358 305.335 214.604 305.146 208.103 305.146C201.695 305.146 200.188 304.769 194.346 301.66C188.127 298.456 187.09 298.268 176.442 297.702L165.041 297.137L159.953 293.368C157.126 291.389 152.509 287.62 149.682 285.076C144.311 280.271 137.15 276.313 129.329 273.675C125.749 272.544 123.77 271.131 121.32 267.927L118.022 263.592L112.274 263.969C107.846 264.158 105.49 264.817 102.475 266.89C98.7998 269.34 97.8576 269.529 92.204 269.152C85.4196 268.681 81.9333 267.173 74.5836 261.802C71.4741 259.446 67.9877 257.845 64.4071 257.091C61.2977 256.431 57.5286 255.112 55.9267 254.17C53.1942 252.474 48.8598 252.097 44.5253 253.039Z" fill="black"/>
<circle cx="690" cy="629" fill="#5CE50D"/>
<circle cx="275" cy="629" fill="#E52A0D"/>
<circle cx="424" cy="530" fill="#E52A0D"/>
<circle cx="215" cy="420" fill="#E52A0D"/>
</svg>
