<svg width="1000" height="1000" viewBox="0 0 1000 1000" fill="none" xmlns="http://www.w3.org/2000/svg">
<rect width="1000" height="1000" />
<path d="M67.3626 286.439C64.6919 289.491 62.4982 290.35 55.6309 291.113C49.7174 291.876 49.1451 292.162 45.5207 296.263C43.1362 299.029 40.9425 300.651 39.6072 300.651C36.4597 300.651 31.7861 306.183 33.1214 308.281C33.4075 308.758 36.6504 310.952 40.2748 313.05L46.9514 316.961V323.16C46.9514 327.071 46.3791 330.123 45.5207 331.554C43.7085 334.224 35.9828 339.375 32.263 340.329L29.497 340.996L30.1646 348.913C30.9277 358.546 30.4508 359.786 21.7713 368.37C17.0023 372.948 15.4762 375.142 15.4762 377.145C15.4762 379.339 16.0485 379.911 19.1006 380.674C21.0082 381.151 26.1587 381.914 30.4508 382.296C37.1273 382.772 38.7488 382.677 40.9425 381.246C46.6653 377.527 53.6279 377.717 53.6279 381.628C53.6279 382.963 51.8157 384.012 46.4745 386.015C42.5639 387.446 37.5088 389.926 35.3151 391.547C33.026 393.264 29.497 395.267 27.3986 396.126C23.6788 397.652 23.5835 397.842 23.3927 402.325C23.3927 404.9 22.4389 408.906 21.3897 411.291C20.2452 413.58 19.5775 415.774 19.8637 415.964C20.0544 416.251 22.725 414.057 25.7772 411.195C28.7339 408.334 33.6937 404.042 36.7458 401.753C39.7979 399.464 43.1362 396.602 44.09 395.363C46.2837 392.501 59.2553 386.492 63.0705 386.492C65.2642 386.492 66.5995 385.634 68.6025 383.154C70.2239 381.056 72.6084 379.434 74.8022 378.862C78.8081 377.717 86.1523 370.087 89.2044 363.792C90.8259 360.549 91.6843 359.786 93.7826 359.786C95.118 359.786 97.5978 359.309 99.1239 358.832C101.413 357.974 103.034 358.165 106.754 359.595L111.619 361.407L115.624 358.737C119.154 356.352 120.68 355.971 126.021 355.971C131.362 355.971 133.365 356.448 139.374 359.5C146.909 363.315 149.198 363.601 160.739 362.171L166.271 361.407L170.277 365.89C172.566 368.275 174.76 370.278 175.237 370.278C175.713 370.278 178.098 372.281 180.578 374.665L185.061 379.053L195.743 379.911C208.715 380.96 211.29 382.2 199.081 381.437C193.645 381.151 188.971 381.437 186.205 382.2C183.821 382.868 177.716 384.012 172.566 384.871C165.794 385.92 162.17 386.969 159.404 388.781C154.921 391.833 154.73 393.36 158.545 396.03C160.834 397.652 162.265 397.938 165.126 397.461C168.369 396.889 169.037 397.175 169.991 398.796C170.849 400.418 170.754 400.799 169.514 400.799C168.751 400.799 168.083 401.467 168.083 402.325C168.083 403.756 167.32 403.851 162.17 403.184C151.392 401.944 141.186 401.371 125.925 401.276C110.76 401.276 107.231 400.418 112.382 398.033C116.578 396.126 115.243 393.55 109.139 391.833C106.087 390.975 102.653 390.307 101.604 390.307C99.6008 390.307 99.6008 390.403 101.127 394.313C101.89 396.602 103.225 399.178 103.988 400.036C106.277 402.802 102.271 403.947 92.0658 403.47C83.4817 402.993 82.9094 402.802 79.7619 399.75C77.9497 398.033 76.519 396.03 76.519 395.267C76.519 394.123 75.5652 394.027 71.5593 394.504C68.8886 394.886 65.9319 395.553 64.9781 396.126C62.7844 397.27 56.8708 397.27 52.7695 396.03C49.1451 394.981 46.9514 396.126 39.2257 403.279C36.8412 405.473 33.9798 407.571 32.8353 407.857C31.3092 408.334 30.3554 410.051 29.2108 414.152C27.6848 419.589 27.5894 419.684 23.5835 420.257C20.2452 420.829 19.2914 421.401 18.5284 423.499C16.5254 428.65 15.4762 433.8 15.4762 438.951C15.4762 441.812 14.6178 446.963 13.5686 450.301C11.2795 457.454 11.8518 458.79 16.6208 457.168C21.8666 455.261 40.3702 452.304 47.1422 452.304C52.4834 452.304 53.7233 452.59 54.4864 454.116C55.3448 455.642 54.6771 456.596 50.385 460.316C46.6653 463.463 44.3762 464.703 42.2778 464.703C39.7979 464.703 39.321 465.085 39.321 467.088C39.321 468.518 40.1795 470.045 41.7055 470.998C43.0408 471.857 44.09 473.383 44.09 474.337C44.09 475.29 45.3299 477.484 46.856 479.201C50.6712 483.588 51.2435 485.973 48.859 488.071C45.1392 491.409 47.5237 494.271 54.0095 494.271C58.2062 494.271 59.7322 497.418 56.5847 499.707C53.9141 501.52 50.7666 504.953 50.7666 505.907C50.7666 507.052 44.2808 506.861 43.6131 505.716C42.2778 503.523 41.2286 505.049 41.2286 508.959C41.2286 512.393 41.7055 513.633 43.6131 515.064C45.1392 516.303 45.9976 517.925 45.9976 519.642C45.9976 523.648 46.7606 524.315 54.1048 527.749L60.7814 530.801L56.0124 531.66C50.4804 532.518 44.5669 531.85 41.5148 529.943C38.6534 528.131 38.558 528.131 38.1765 531.66L37.8904 534.807L35.792 530.801C33.9798 527.558 33.789 526.414 34.6475 524.029C35.5059 521.454 35.2197 520.5 32.263 515.827C29.4016 511.248 28.4478 510.485 25.9679 510.485H23.1066V517.162C23.1066 521.454 23.6788 524.983 24.6326 526.891C26.4448 530.324 25.3003 531.66 20.9128 531.278C18.8145 531.087 17.8607 531.66 16.6208 533.567C15.1901 535.952 15.1901 536.238 16.9069 538.05C17.8607 539.195 19.7683 540.053 21.1036 540.053C22.6297 540.053 24.9188 541.484 27.494 543.963L31.4999 547.969L34.0752 545.394C37.6996 541.77 42.5639 541.961 44.5669 545.776C45.3299 547.302 45.9976 549.877 45.9976 551.498C45.9976 554.264 46.2837 554.455 48.7636 554.264C50.4804 554.074 52.8649 554.837 55.3448 556.458C57.4431 557.889 60.3045 559.32 61.6398 559.701C64.5012 560.369 65.455 561.418 66.6949 565.328C68.221 569.716 65.8365 572.959 59.1599 575.534C56.1078 576.774 53.6279 578.014 53.6279 578.3C53.6279 578.682 54.6771 579.254 55.917 579.54C58.9692 580.303 61.2583 587.075 61.2583 595.468C61.2583 600.619 61.5444 601.954 62.9751 602.526C64.1197 602.908 65.3596 602.24 67.0764 600.237C69.8424 596.804 74.4206 595.945 72.7038 599.093C71.1777 602.049 71.5593 603.957 73.6576 603.957C74.8975 603.957 75.3744 604.434 74.9929 605.388C74.516 606.437 75.2791 607.009 77.3774 607.391C80.2388 607.963 80.3342 608.249 80.1434 612.16C79.8573 615.975 79.5711 616.452 76.8051 617.406C74.516 618.169 72.8946 618.073 70.4147 617.215C67.5533 616.166 66.8857 616.261 64.3104 618.073C61.6398 620.076 61.5444 620.362 62.4028 623.414C63.2613 626.276 63.6428 626.562 65.1688 625.608C66.4088 624.845 67.7441 624.941 70.5101 625.799C72.9899 626.657 77.0913 626.848 83.6724 626.467C109.329 624.845 117.723 624.845 117.341 626.085C117.055 626.753 115.815 627.42 114.385 627.611C113.049 627.802 111.428 628.565 110.856 629.328C110.188 630.091 108.471 630.663 106.945 630.663C104.656 630.663 104.084 631.236 103.13 634.478L101.985 638.294L96.1671 638.484C92.9242 638.58 88.2506 638.771 85.58 638.771C82.6233 638.771 78.2358 639.82 73.8484 641.537C67.5533 644.112 66.9811 644.493 68.5071 645.638C70.7962 647.259 81.8602 647.259 82.9094 645.638C83.2909 644.97 84.9124 643.635 86.4384 642.681C88.6322 641.25 89.586 641.155 91.4935 642.013C94.4503 643.349 99.6008 643.349 102.748 641.918C104.084 641.346 105.419 641.155 105.8 641.537C106.945 642.586 104.656 645.352 102.176 645.924C100.268 646.401 100.173 646.592 101.604 647.164C103.607 647.927 103.797 650.693 101.795 650.693C100.65 650.693 98.4562 653.364 98.4562 654.89C98.4562 656.797 103.034 654.89 106.85 651.361C109.329 649.071 112.572 646.782 114.098 646.115C116.006 645.256 116.674 644.398 116.292 643.158C115.911 641.632 116.578 641.25 121.252 640.773C129.55 639.82 132.507 640.773 133.747 644.589C134.605 646.973 135.845 648.213 138.325 649.358C140.328 650.121 142.521 651.742 143.475 652.791C144.811 654.603 145.287 654.699 146.527 653.65C147.386 652.982 148.053 651.837 148.053 651.265C148.053 650.693 148.721 649.167 149.58 648.022L151.01 645.829L154.921 648.881C158.068 651.456 158.45 652.124 157.21 652.791C155.112 653.936 155.302 656.988 157.496 658.514C158.927 659.563 159.308 660.994 159.308 665.286L159.213 670.818L164.84 675.968C168.846 679.593 171.04 680.928 172.375 680.642C173.615 680.356 175.046 680.928 176.095 682.073C177.43 683.503 179.052 684.076 181.913 684.076C184.965 684.076 186.301 684.648 187.922 686.46C190.497 689.417 192.214 689.417 196.125 686.46C197.841 685.125 200.321 684.076 201.752 684.076C204.804 684.076 212.053 681.024 213.674 679.021C214.819 677.685 215.391 677.685 218.73 678.83C220.828 679.593 223.785 680.928 225.406 681.882C228.84 683.885 229.507 683.217 231.033 675.968C231.606 673.393 232.941 669.769 233.99 667.861C235.23 665.858 236.089 662.329 236.375 658.8C237.042 647.545 237.71 645.066 240.667 642.967C243.337 641.06 243.719 641.06 247.343 642.49C249.919 643.539 254.115 644.016 260.506 644.016C267.85 644.016 270.997 644.493 274.336 645.924C276.72 646.878 278.723 648.213 278.723 648.69C278.723 649.167 280.154 649.93 281.871 650.216C283.492 650.598 286.449 652.124 288.261 653.554C290.073 654.985 296.941 658.896 303.522 662.138C316.398 668.529 317.256 669.292 324.982 680.737C331.372 690.371 336.237 695.521 338.812 695.521C339.861 695.521 341.96 696.38 343.486 697.524C347.682 700.576 353.119 700.958 358.365 698.383C362.085 696.57 363.229 696.38 365.232 697.333C367.617 698.478 369.238 697.62 369.333 695.235C369.333 694.854 374.865 694.567 381.637 694.567C391.366 694.567 394.132 694.281 395.086 693.137C396.421 691.515 398.996 691.229 400.427 692.66C401.095 693.327 402.907 691.992 406.055 688.845C411.3 683.599 412.636 683.122 414.257 686.174L415.306 688.177L416.928 685.697C417.691 684.266 419.121 683.122 420.075 683.122C421.411 683.122 421.601 682.55 421.22 680.356C420.743 677.971 421.506 676.827 428.659 669.769C432.952 665.477 438.293 660.899 440.391 659.563C442.489 658.228 445.255 656.13 446.591 654.89C448.498 653.173 450.501 652.601 456.319 652.028C463.282 651.456 463.759 651.551 466.62 653.936C468.242 655.271 470.149 656.416 470.722 656.416C471.389 656.416 473.965 658.133 476.54 660.231C479.02 662.329 481.786 664.046 482.549 664.046C483.407 664.046 485.505 664.904 487.222 666.049C489.702 667.575 490.847 667.766 492.277 667.003C493.327 666.431 495.997 665.954 498.286 665.954C500.575 665.954 502.865 665.572 503.437 665.191C504.772 664.332 506.68 658.705 506.68 655.843C506.68 654.031 507.157 653.554 509.16 653.554C510.876 653.554 513.452 651.933 517.362 648.308C520.414 645.447 523.371 643.063 523.943 643.063C526.042 643.063 532.337 648.213 533.386 650.788C534.054 652.41 534.435 655.843 534.149 658.8C533.767 663.188 533.195 664.714 530.525 667.384C528.808 669.101 526.232 671.104 524.897 671.676C523.466 672.249 520.51 674.824 518.316 677.399L514.215 682.168L518.03 691.229C522.227 700.862 522.513 702.961 520.891 707.825C519.365 712.213 521.654 714.311 528.617 714.788C533.672 715.074 533.767 715.074 534.626 712.022C535.198 710.305 536.343 708.684 537.296 708.397C538.155 708.111 540.062 706.967 541.398 705.918C543.687 704.201 543.878 703.342 543.878 697.333V690.752H548.074C550.459 690.752 553.416 691.134 554.751 691.706C556.754 692.469 557.612 692.183 559.997 689.798L562.858 686.937L560.092 685.506C555.419 683.122 553.129 678.83 553.797 674.252C554.179 672.058 554.751 667.67 555.228 664.428C555.991 659.277 557.231 655.748 559.901 651.837C560.569 650.788 561.523 650.884 564.48 652.505C566.483 653.65 569.249 654.508 570.584 654.508C575.83 654.508 577.451 655.557 577.07 658.514C576.402 662.52 579.74 664.714 584.032 663.188C585.749 662.615 590.423 662.138 594.429 662.138C600.438 662.138 602.059 661.852 603.394 660.326C605.302 658.228 612.551 655.462 616.271 655.462C617.606 655.462 620.944 654.127 623.519 652.601C633.916 646.496 637.731 644.97 642.881 644.97C649.176 644.97 656.425 648.404 661.385 653.936L665.009 657.846L685.802 657.751C711.745 657.56 718.613 656.606 730.058 651.551C734.922 649.358 741.504 646.592 744.651 645.256C747.799 643.921 751.9 641.441 753.712 639.629C755.524 637.912 758.576 635.814 760.389 635.051C762.296 634.288 764.585 632.762 765.539 631.712C766.684 630.473 768.496 629.709 770.499 629.709C772.216 629.709 775.649 629.233 778.225 628.66C782.04 627.802 784.71 627.897 792.055 629.137C803.309 631.045 809.032 631.045 813.324 629.328C815.136 628.565 818.665 627.611 821.145 627.325C829.539 626.18 840.317 622.175 842.606 619.218C843.846 617.787 846.23 615.879 847.947 615.021C850.904 613.495 851.285 613.495 854.147 615.116C856.531 616.547 857.294 617.692 857.676 620.744C858.057 623.51 858.534 624.464 859.869 624.368C860.728 624.368 862.826 624.273 864.448 624.177C868.167 623.987 873.032 618.932 874.844 613.495C875.512 611.397 877.133 609.012 878.468 608.154C880.567 606.723 881.139 606.723 884.954 608.249C888.96 609.775 889.437 609.775 893.824 608.154C897.544 606.818 898.975 606.723 901.55 607.677C903.267 608.249 906.128 608.726 907.94 608.726C909.657 608.726 912.805 609.775 914.903 611.111C916.906 612.446 919.291 613.209 920.149 612.923C920.912 612.541 922.247 612.827 923.01 613.495C923.964 614.258 926.826 614.544 931.69 614.258C938.367 613.972 939.13 613.686 941.133 611.206C943.231 608.535 943.612 608.44 948.954 609.108C952.864 609.489 954.963 610.252 956.202 611.683C958.015 613.877 958.396 617.787 956.87 618.741C955.058 619.885 955.916 624.559 958.301 626.848C960.208 628.66 961.162 628.946 962.402 628.183C963.26 627.611 964.119 626.276 964.31 625.131C964.5 623.891 965.931 622.651 968.602 621.602C970.7 620.744 973.943 618.741 975.66 617.215C977.663 615.498 979.952 614.449 981.764 614.449C983.576 614.449 984.816 613.877 985.198 612.732C985.484 611.874 986.438 610.347 987.201 609.489C988.441 607.963 988.345 607.772 986.152 606.914C984.721 606.342 982.527 604.052 981.001 601.859C979.57 599.57 977.663 596.899 976.709 595.754C975.469 594.324 974.801 591.367 974.229 585.263C973.561 576.965 973.466 576.774 970.986 576.488C969.46 576.297 968.125 575.439 967.839 574.294C967.076 571.91 962.593 569.621 958.492 569.621C955.535 569.621 955.153 569.334 954.772 566.568C954.486 564.947 954.867 562.467 955.535 561.132C956.298 559.796 956.87 558.175 956.87 557.603C956.87 557.03 957.919 555.6 959.255 554.36C960.59 553.12 961.639 551.022 961.639 549.686C961.639 548.446 962.497 545.49 963.642 543.2C966.217 537.859 965.74 535.856 961.925 535.475C960.304 535.284 958.396 534.616 957.824 533.853C956.679 532.423 955.058 522.026 954.39 510.485C953.913 504.19 953.627 503.141 951.815 502.378C948.572 500.947 947.237 497.323 947.904 491.791C948.667 485.591 947.904 483.398 944.948 482.062C943.231 481.299 942.563 480.25 942.563 478.247C942.563 476.721 942.086 474.05 941.514 472.334C940.656 469.854 940.656 469.091 941.705 468.423C943.422 467.374 948 467.374 950.098 468.423C951.243 469.091 952.769 468.614 955.726 466.802C959.636 464.322 959.731 464.131 959.731 458.981C959.827 450.683 961.067 446.772 964.882 443.243C966.79 441.526 968.316 439.714 968.316 439.142C968.316 438.665 965.55 435.231 962.211 431.702L956.107 425.121L944.375 425.025C928.352 424.93 916.906 421.878 919.672 418.444C920.435 417.586 920.435 417.014 919.672 416.537C918.337 415.678 913.949 405.854 913.949 403.756C913.949 402.897 913.282 401.276 912.519 400.131C911.279 398.319 911.374 397.842 913.854 394.409C915.38 392.31 917.383 388.209 918.337 385.252C919.863 380.293 919.863 379.72 918.432 375.81C917.478 373.521 916.811 370.755 916.811 369.705C916.811 366.844 913.568 363.029 908.608 360.168C905.651 358.451 904.411 357.115 904.411 355.589C904.411 354.445 903.744 352.537 902.885 351.393C901.741 349.676 900.501 349.294 896.304 349.294C891.631 349.294 890.963 349.008 889.818 346.624C889.055 345.193 888.578 343.572 888.865 342.999C889.055 342.522 887.434 341.282 885.336 340.329C883.047 339.375 880.185 336.895 878.373 334.415C876.179 331.363 874.844 330.314 873.413 330.6C871.982 330.981 871.124 330.314 870.075 328.025C868.74 325.259 868.167 324.973 863.78 324.686C859.392 324.4 858.629 324.686 856.817 326.976C855.673 328.406 854.814 330.218 854.814 331.077C854.814 334.034 853.384 335.178 850.904 334.129C849.664 333.557 843.083 332.698 836.311 332.221L824.007 331.363L821.622 334.129C819.524 336.704 819.142 336.8 817.616 335.464C816.758 334.701 814.946 334.034 813.515 334.034C812.18 334.034 809.891 333.557 808.365 332.984C805.789 332.031 805.408 332.221 799.494 338.612C794.63 343.858 792.531 345.479 789.67 345.956C787.763 346.338 784.043 348.341 781.468 350.343C778.511 352.728 775.84 354.063 774.123 354.063C769.259 354.063 764.872 355.875 761.438 359.214C757.813 362.743 753.998 364.555 750.469 364.555C749.229 364.555 747.703 365.223 746.94 366.081C746.273 366.939 743.125 368.847 739.978 370.469C734.445 373.33 734.064 373.33 731.489 371.804C729.963 370.945 726.624 370.278 723.858 370.278C720.139 370.278 716.514 369.229 709.17 366.081C700.681 362.361 699.06 361.98 695.817 362.743C693.814 363.22 690.19 363.601 687.805 363.601C685.325 363.601 677.313 365.604 668.729 368.275C660.622 370.85 652.133 373.235 649.939 373.616C645.457 374.379 634.011 372.948 624.282 370.564C618.56 369.133 618.369 369.038 617.797 365.413C617.129 361.789 617.129 361.694 613.028 361.694C609.594 361.694 608.736 362.075 608.259 363.697C607.686 365.413 607.114 365.604 604.157 365.032C602.25 364.65 599.484 363.792 598.053 363.029C596.527 362.266 592.14 361.121 588.134 360.454C581.171 359.405 580.98 359.214 578.691 355.303C575.162 349.39 571.728 347.387 563.907 346.719L557.135 346.147L553.416 349.771C549.887 353.205 549.696 353.3 546.262 352.156C543.687 351.297 542.352 350.153 541.398 347.864C540.444 345.384 539.299 344.525 536.533 343.858L532.909 342.999L532.241 336.132C531.86 332.412 530.811 328.215 529.952 326.976C527.759 323.542 521.464 322.779 513.165 324.973C504.581 327.166 497.428 326.499 491.514 322.874C486.364 319.631 481.404 312.859 480.641 307.614C479.878 303.131 476.349 297.503 473.965 297.026C473.011 296.836 471.389 297.694 470.34 299.029C465.953 304.657 463.568 305.324 447.163 305.324C436.004 305.324 431.235 305.038 428.755 303.989C426.847 303.226 423.414 302.558 420.934 302.558C418.454 302.558 411.587 301.891 405.578 301.032C399.569 300.174 393.178 299.697 391.366 299.983C384.022 300.937 375.342 303.894 372.195 306.374C369.524 308.472 366.758 309.33 359.509 310.475C352.547 311.524 349.018 312.669 345.679 314.767C343.2 316.293 339.957 317.915 338.431 318.201C336.905 318.582 333.757 320.49 331.277 322.493C328.893 324.496 325.077 326.594 322.884 327.262C320.595 327.834 316.112 330.505 312.869 333.175C307.146 337.658 304.38 339.184 294.556 343.476C290.932 345.098 290.169 345.956 288.738 350.153C287.403 354.254 286.449 355.399 283.206 357.02C279.677 358.832 278.055 359.023 265.942 358.641C252.494 358.26 252.494 358.26 245.722 354.731C237.042 350.057 233.036 349.39 229.412 351.87C227.981 352.919 224.929 354.063 222.735 354.445C218.253 355.112 206.235 353.682 199.177 351.583C190.211 349.008 177.716 347.291 175.809 348.341C173.138 349.676 172.852 349.58 172.852 346.91C172.852 344.144 172.566 344.048 169.895 345.67C168.178 346.814 166.08 345.956 152.346 338.898C139.183 332.126 135.654 329.837 130.027 324.4C126.212 320.681 123.064 316.77 122.683 315.244C122.301 313.813 121.252 310.952 120.298 309.044C118.104 304.752 118.009 300.746 119.917 300.079C122.301 299.125 121.538 296.931 118.295 294.928C114.098 292.448 110.283 292.448 108.853 295.023C108.185 296.359 107.231 296.836 105.896 296.454C104.751 296.263 102.271 296.836 100.364 297.789L96.8348 299.602L93.6873 295.119C88.7275 287.775 80.7157 282.529 78.9035 285.39C78.6173 285.867 77.0913 286.344 75.5652 286.344C74.0391 286.344 72.5131 285.867 72.2269 285.39C71.2731 283.864 69.3655 284.246 67.3626 286.439Z" fill="black"/>
<circle cx="376" cy="443" fill="#5CE50D"/>
<circle cx="173" cy="355" fill="#E52A0D"/>
<circle cx="67" cy="542" fill="#E52A0D"/>
<circle cx="266" cy="639" fill="#E52A0D"/>
</svg>
